<?xml version="1.0" encoding="UTF-8"?>
<svg fill="none" stroke-linejoin="round" stroke-width="1.5" version="1.1" viewBox="1.6 1.6 20.5 19.5" xmlns="http://www.w3.org/2000/svg">
<style>@media (prefers-color-scheme: dark)  { svg { stroke: #ffffff; } }
    @media (prefers-color-scheme: light) { svg { stroke: #000000; } }</style>
<path d="m19.35 20.35h-12c-2.357 0-3.5355 0-4.2678-0.7322-0.73223-0.7323-0.73223-1.9108-0.73223-4.2678v-8c0-2.357 0-3.5355 0.73223-4.2678 0.73223-0.73223 1.9107-0.73223 4.2678-0.73223h5c2.357 0 3.5355 0 4.2678 0.73223 0.7322 0.73224 0.7322 1.9108 0.7322 4.2678" stroke-linecap="round"/>
<path d="m11.85 5.35h-4c-0.94281 0-1.4142 0-1.7071 0.29289-0.29289 0.2929-0.29289 0.7643-0.29289 1.7071s0 1.4142 0.29289 1.7071c0.29289 0.29289 0.7643 0.29289 1.7071 0.29289h4c0.9428 0 1.4142 0 1.7071-0.29289 0.2929-0.2929 0.2929-0.7643 0.2929-1.7071s0-1.4142-0.2929-1.7071c-0.2929-0.29289-0.7643-0.29289-1.7071-0.29289z" stroke-linecap="round"/>
<path d="m5.85 13.35h8" stroke-linecap="round"/>
<path d="m5.85 17.35h5" stroke-linecap="round"/>
<path d="m17.35 7.35h1c1.4142 0 2.1213 0 2.5606 0.43934 0.4394 0.43934 0.4394 1.1464 0.4394 2.5607v8c0 1.1046-0.8954 2-2 2s-2-0.8954-2-2z"/>
</svg>
