<svg xmlns="http://www.w3.org/2000/svg" viewBox="0 0 512 512">
  <!-- Background with rounded corners -->
  <rect width="512" height="512" rx="96" fill="#0f172a"/>

  <!-- Top rule (masthead bar) -->
  <rect x="64" y="80" width="384" height="8" rx="2" fill="#f8fafc"/>
  <!-- Masthead title block -->
  <rect x="64" y="104" width="384" height="52" rx="4" fill="#f8fafc" opacity="0.92"/>
  <!-- Bottom rule under masthead -->
  <rect x="64" y="168" width="384" height="6" rx="2" fill="#f8fafc"/>

  <!-- Left column text lines -->
  <rect x="64" y="196" width="176" height="10" rx="3" fill="#f8fafc" opacity="0.85"/>
  <rect x="64" y="214" width="168" height="7" rx="2" fill="#f8fafc" opacity="0.45"/>
  <rect x="64" y="228" width="176" height="7" rx="2" fill="#f8fafc" opacity="0.45"/>
  <rect x="64" y="242" width="160" height="7" rx="2" fill="#f8fafc" opacity="0.45"/>
  <rect x="64" y="256" width="172" height="7" rx="2" fill="#f8fafc" opacity="0.45"/>
  <rect x="64" y="270" width="152" height="7" rx="2" fill="#f8fafc" opacity="0.45"/>
  <rect x="64" y="284" width="176" height="7" rx="2" fill="#f8fafc" opacity="0.45"/>
  <rect x="64" y="298" width="164" height="7" rx="2" fill="#f8fafc" opacity="0.45"/>
  <rect x="64" y="312" width="176" height="7" rx="2" fill="#f8fafc" opacity="0.45"/>
  <rect x="64" y="326" width="148" height="7" rx="2" fill="#f8fafc" opacity="0.45"/>
  <rect x="64" y="340" width="168" height="7" rx="2" fill="#f8fafc" opacity="0.45"/>
  <rect x="64" y="354" width="176" height="7" rx="2" fill="#f8fafc" opacity="0.45"/>

  <!-- Right column text lines -->
  <rect x="272" y="196" width="176" height="10" rx="3" fill="#f8fafc" opacity="0.85"/>
  <rect x="272" y="214" width="168" height="7" rx="2" fill="#f8fafc" opacity="0.45"/>
  <rect x="272" y="228" width="176" height="7" rx="2" fill="#f8fafc" opacity="0.45"/>
  <rect x="272" y="242" width="156" height="7" rx="2" fill="#f8fafc" opacity="0.45"/>
  <rect x="272" y="256" width="176" height="7" rx="2" fill="#f8fafc" opacity="0.45"/>
  <rect x="272" y="270" width="160" height="7" rx="2" fill="#f8fafc" opacity="0.45"/>

  <!-- Right column image placeholder -->
  <rect x="272" y="294" width="176" height="96" rx="4" fill="#f8fafc" opacity="0.18"/>
  <rect x="272" y="397" width="152" height="7" rx="2" fill="#f8fafc" opacity="0.35"/>

  <!-- Column divider -->
  <rect x="252" y="190" width="2" height="244" rx="1" fill="#f8fafc" opacity="0.18"/>

  <!-- Bottom fold line suggestion -->
  <rect x="64" y="424" width="384" height="4" rx="2" fill="#f8fafc" opacity="0.22"/>
</svg>
